<?xml version="1.0" encoding="UTF-8"?><svg xmlns="http://www.w3.org/2000/svg" viewBox="0 0 1049.85 237.74"><defs><style>.cls-1,.cls-2{stroke-width:0px;}.cls-3{stroke-dasharray:0 0 15.1 15.1;}.cls-3,.cls-4{fill:none;stroke:#cf3040;stroke-miterlimit:10;stroke-width:5px;}.cls-2{fill:#cf3040;}</style></defs><g id="Layer_1"><path class="cls-1" d="m279.47,69.38h-46.4v33.8h44.8v19.2h-44.8v61.2h-20.4V50.18h66.8v19.2Z"/><path class="cls-1" d="m431.27,141.57c0,25.8-19.6,44.6-45,44.6s-45-18.8-45-44.6,19.6-44.4,45-44.4,45,18.4,45,44.4Zm-20,.2c0-19.2-12.6-27-25-27s-25,7.8-25,27c0,16.2,9.6,26.8,25,26.8s25-10.6,25-26.8Z"/><path class="cls-1" d="m518.47,117.37v66.2h-19.6v-66.2h-8.2v-18h8.2v-30.8h19.6v30.8h15v18h-15Z"/><path class="cls-1" d="m654.86,99.37h19.6v77.4c0,19.8-2.2,34-13.8,43.8-5.4,4.4-14.2,9-28,9-9.8,0-19.6-2.4-27.6-10.4-6.2-6.2-11-16-12.4-26.2h19c.8,4.6,3.2,10,6.2,13.2,2.4,2.6,7.2,5.8,15.2,5.8s13-3.2,15.4-5.6c6.4-6.2,6.4-15,6.4-21.2v-11c-9,11.4-20,12-25.6,12-10.8,0-19.8-3-27.8-11.4-7.6-8-12.6-19.4-12.6-33.4,0-15.4,5.8-26,12.4-32.6,8.4-8.6,18.4-11.6,28.6-11.6,8.4,0,17.8,2.8,25,11.4v-9.2Zm-37.4,21c-5,4.6-8.6,12.4-8.6,21.4,0,8.4,3.2,16.6,8.4,21.2,3.6,3.2,9,5.6,15,5.6s11.6-1.8,16.4-6.8c5.8-6.2,7.4-13.4,7.4-19.8,0-9.4-3-16.4-8-21.2-4.8-4.8-10.2-6-15.8-6s-10.4,1.4-14.8,5.6Z"/><path class="cls-1" d="m807.46,37.78h19.6v145.8h-19.6v-8.8c-8.6,10-19.2,11.4-25.2,11.4-26,0-40.8-21.6-40.8-44.8,0-27.4,18.8-44.2,41-44.2,6.2,0,17,1.6,25,12V37.78Zm-46,104c0,14.6,9.2,26.8,23.4,26.8,12.4,0,23.8-9,23.8-26.6s-11.4-27.2-23.8-27.2c-14.2,0-23.4,12-23.4,27Z"/><path class="cls-1" d="m980.46,151.37h-57l-14.6,32.2h-22l66.4-141.2,63.2,141.2h-22l-14-32.2Zm-8.2-19.2l-19.8-45.2-20.6,45.2h40.4Z"/></g><g id="Layer_2"><line class="cls-4" x1="1049.85" y1="97.26" x2="1042.35" y2="97.26"/><line class="cls-3" x1="1027.25" y1="97.26" x2="189.32" y2="97.26"/><line class="cls-4" x1="181.77" y1="97.26" x2="174.27" y2="97.26"/><line class="cls-4" x1="1049.85" y1="186.53" x2="1042.35" y2="186.53"/><line class="cls-3" x1="1027.25" y1="186.53" x2="189.32" y2="186.53"/><line class="cls-4" x1="181.77" y1="186.53" x2="174.27" y2="186.53"/><line class="cls-4" x1="1049.85" y1="47.58" x2="1042.35" y2="47.58"/><line class="cls-3" x1="1027.25" y1="47.58" x2="189.32" y2="47.58"/><line class="cls-4" x1="181.77" y1="47.58" x2="174.27" y2="47.58"/><line class="cls-4" x1="1049.85" y1="229.57" x2="1042.35" y2="229.57"/><line class="cls-3" x1="1027.25" y1="229.57" x2="189.32" y2="229.57"/><line class="cls-4" x1="181.77" y1="229.57" x2="174.27" y2="229.57"/><path class="cls-2" d="m61.15,91.09l-4.3-7.73h2.02l3.31,6.02,3.41-6.02h2.02l-4.39,7.73,4.63,8.28h-2.02l-3.67-6.58-3.72,6.58h-2.02l4.73-8.28Z"/><path class="cls-2" d="m69.38,93.37h5.28v1.78h-5.28v-1.78Z"/><path class="cls-2" d="m77.5,81.88h1.73v8.69c.31-.41,1.2-1.39,2.86-1.39,1.18,0,2.26.48,2.86,1.37.5.74.58,1.56.58,2.66v6.17h-1.73v-6.12c0-.6-.05-1.3-.46-1.82-.34-.43-.86-.72-1.63-.72-.6,0-1.25.17-1.75.77-.67.79-.72,1.97-.72,2.69v5.21h-1.73v-17.5Z"/><path class="cls-2" d="m87.79,94.43c0-3.02,2.23-5.26,5.28-5.26s5.28,2.23,5.28,5.26-2.26,5.23-5.28,5.23-5.28-2.21-5.28-5.23Zm1.78,0c0,2.45,1.73,3.7,3.5,3.7s3.5-1.27,3.5-3.7-1.68-3.72-3.5-3.72-3.5,1.3-3.5,3.72Z"/><path class="cls-2" d="m100.37,94.43c0-3.02,2.23-5.26,5.28-5.26s5.28,2.23,5.28,5.26-2.26,5.23-5.28,5.23-5.28-2.21-5.28-5.23Zm1.78,0c0,2.45,1.73,3.7,3.5,3.7s3.5-1.27,3.5-3.7-1.68-3.72-3.5-3.72-3.5,1.3-3.5,3.72Z"/><path class="cls-2" d="m121.2,89.41h1.73v9.72c0,1.08,0,2.62-.96,3.91-.74,1.01-2.11,1.85-3.98,1.85-1.7,0-2.88-.67-3.55-1.34s-1.3-1.75-1.3-3.22h1.7c0,.84.34,1.58.77,2.06.72.79,1.63.96,2.4.96,1.22,0,2.06-.43,2.64-1.39.5-.82.55-1.7.55-2.54v-1.44c-.58.74-1.66,1.68-3.41,1.68-1.46,0-2.64-.58-3.41-1.34-.67-.67-1.44-1.92-1.44-3.94s.72-3.14,1.44-3.86c.84-.82,2.06-1.34,3.41-1.34,1.46,0,2.62.62,3.41,1.66v-1.42Zm-5.47,2.23c-.84.86-1.01,1.92-1.01,2.74,0,.86.17,2.04,1.13,2.93.55.5,1.22.82,2.14.82s1.63-.29,2.18-.84c.67-.65,1.13-1.7,1.13-2.88s-.43-2.21-1.06-2.81c-.55-.55-1.37-.89-2.26-.89-1.06,0-1.78.46-2.26.94Z"/><path class="cls-2" d="m127.97,91v8.38h-1.73v-8.38h-1.06v-1.58h1.06v-3.6h1.73v3.6h1.73v1.58h-1.73Z"/><path class="cls-2" d="m140.16,96.83c-.29.55-.72,1.15-1.22,1.61-.91.82-2.04,1.22-3.31,1.22-2.4,0-4.92-1.51-4.92-5.21,0-2.98,1.82-5.28,4.82-5.28,1.94,0,3.17.96,3.77,1.82.62.89.98,2.42.94,3.74h-7.75c.02,2.06,1.44,3.38,3.17,3.38.82,0,1.46-.24,2.04-.72.46-.38.82-.89,1.03-1.37l1.44.79Zm-1.7-3.53c-.29-1.56-1.46-2.59-2.93-2.59s-2.66,1.1-2.93,2.59h5.86Z"/><path class="cls-2" d="m1.78,38.43l6.82-6.86h2.4l-7.49,7.46,7.73,8.54h-2.45l-6.55-7.34-.46.46v6.89H0v-16.01h1.78v6.86Z"/><path class="cls-2" d="m19.82,37.62h1.73v9.96h-1.73v-1.39c-.58.74-1.66,1.68-3.41,1.68-2.52,0-4.85-1.78-4.85-5.28s2.3-5.21,4.85-5.21c1.92,0,2.95,1.06,3.41,1.66v-1.42Zm-6.48,4.97c0,2.14,1.2,3.74,3.26,3.74s3.31-1.75,3.31-3.72c0-2.57-1.78-3.7-3.31-3.7-1.7,0-3.26,1.25-3.26,3.67Z"/><path class="cls-2" d="m26.54,53.1h-1.73v-15.48h1.73v1.39c1.18-1.46,2.69-1.63,3.41-1.63,3.12,0,4.85,2.59,4.85,5.28s-1.75,5.21-4.78,5.21c-1.61,0-2.74-.72-3.48-1.68v6.91Zm6.48-10.44c0-2.45-1.66-3.74-3.26-3.74s-3.31,1.32-3.31,3.72c0,2.04,1.3,3.7,3.34,3.7s3.24-1.68,3.24-3.67Z"/><path class="cls-2" d="m38.3,32.62c.67,0,1.22.55,1.22,1.22s-.55,1.22-1.22,1.22-1.22-.55-1.22-1.22.55-1.22,1.22-1.22Zm.86,4.99v9.96h-1.73v-9.96h1.73Z"/><path class="cls-2" d="m44.21,39.2v8.38h-1.73v-8.38h-1.06v-1.58h1.06v-3.6h1.73v3.6h1.73v1.58h-1.73Z"/><path class="cls-2" d="m55.2,37.62h1.73v9.96h-1.73v-1.39c-.58.74-1.66,1.68-3.41,1.68-2.52,0-4.85-1.78-4.85-5.28s2.3-5.21,4.85-5.21c1.92,0,2.95,1.06,3.41,1.66v-1.42Zm-6.48,4.97c0,2.14,1.2,3.74,3.26,3.74s3.31-1.75,3.31-3.72c0-2.57-1.78-3.7-3.31-3.7-1.7,0-3.26,1.25-3.26,3.67Z"/><path class="cls-2" d="m67.82,37.62h1.73v9.96h-1.73v-1.39c-.58.74-1.66,1.68-3.41,1.68-2.52,0-4.85-1.78-4.85-5.28s2.3-5.21,4.85-5.21c1.92,0,2.95,1.06,3.41,1.66v-1.42Zm-6.48,4.97c0,2.14,1.2,3.74,3.26,3.74s3.31-1.75,3.31-3.72c0-2.57-1.78-3.7-3.31-3.7-1.7,0-3.26,1.25-3.26,3.67Z"/><path class="cls-2" d="m74.54,30.08v17.5h-1.73v-17.5h1.73Z"/><path class="cls-2" d="m77.81,30.08h1.73v8.69c.31-.41,1.2-1.39,2.86-1.39,1.18,0,2.26.48,2.86,1.37.5.74.58,1.56.58,2.66v6.17h-1.73v-6.12c0-.6-.05-1.3-.46-1.82-.34-.43-.86-.72-1.63-.72-.6,0-1.25.17-1.75.77-.67.79-.72,1.97-.72,2.69v5.21h-1.73v-17.5Z"/><path class="cls-2" d="m88.1,42.63c0-3.02,2.23-5.26,5.28-5.26s5.28,2.23,5.28,5.26-2.26,5.23-5.28,5.23-5.28-2.21-5.28-5.23Zm1.78,0c0,2.45,1.73,3.7,3.5,3.7s3.5-1.27,3.5-3.7-1.68-3.72-3.5-3.72-3.5,1.3-3.5,3.72Z"/><path class="cls-2" d="m100.68,42.63c0-3.02,2.23-5.26,5.28-5.26s5.28,2.23,5.28,5.26-2.26,5.23-5.28,5.23-5.28-2.21-5.28-5.23Zm1.78,0c0,2.45,1.73,3.7,3.5,3.7s3.5-1.27,3.5-3.7-1.68-3.72-3.5-3.72-3.5,1.3-3.5,3.72Z"/><path class="cls-2" d="m121.51,37.62h1.73v9.72c0,1.08,0,2.62-.96,3.91-.74,1.01-2.11,1.85-3.98,1.85-1.7,0-2.88-.67-3.55-1.34s-1.3-1.75-1.3-3.22h1.7c0,.84.34,1.58.77,2.06.72.79,1.63.96,2.4.96,1.22,0,2.06-.43,2.64-1.39.5-.82.55-1.7.55-2.54v-1.44c-.58.74-1.66,1.68-3.41,1.68-1.46,0-2.64-.58-3.41-1.34-.67-.67-1.44-1.92-1.44-3.94s.72-3.14,1.44-3.86c.84-.82,2.06-1.34,3.41-1.34,1.46,0,2.62.62,3.41,1.66v-1.42Zm-5.47,2.23c-.84.86-1.01,1.92-1.01,2.74,0,.86.17,2.04,1.13,2.93.55.5,1.22.82,2.14.82s1.63-.29,2.18-.84c.67-.65,1.13-1.7,1.13-2.88s-.43-2.21-1.06-2.81c-.55-.55-1.37-.89-2.26-.89-1.06,0-1.78.46-2.26.94Z"/><path class="cls-2" d="m128.28,39.2v8.38h-1.73v-8.38h-1.06v-1.58h1.06v-3.6h1.73v3.6h1.73v1.58h-1.73Z"/><path class="cls-2" d="m140.47,45.03c-.29.55-.72,1.15-1.22,1.61-.91.82-2.04,1.22-3.31,1.22-2.4,0-4.92-1.51-4.92-5.21,0-2.98,1.82-5.28,4.82-5.28,1.94,0,3.17.96,3.77,1.82.62.89.98,2.42.94,3.74h-7.75c.02,2.06,1.44,3.38,3.17,3.38.82,0,1.46-.24,2.04-.72.46-.38.82-.89,1.03-1.37l1.44.79Zm-1.7-3.53c-.29-1.56-1.46-2.59-2.93-2.59s-2.66,1.1-2.93,2.59h5.86Z"/><path class="cls-2" d="m74.67,175.76c.89,0,2.5.07,3.67,1.01.5.38,1.44,1.37,1.44,3.31,0,.79-.17,2.18-1.58,3.14,2.23.55,3.05,2.5,3.05,4.03s-.77,2.78-1.63,3.46c-1.27,1.01-2.74,1.06-3.84,1.06h-3.98v-16.01h2.88Zm-1.1,7.03h1.34c.94,0,3.14-.19,3.14-2.66,0-2.64-2.59-2.69-3.1-2.69h-1.39v5.35Zm0,7.3h2.04c1.03,0,2.04-.07,2.81-.67.62-.46,1.06-1.25,1.06-2.21,0-1.27-.74-2.02-1.37-2.35-.6-.34-1.44-.48-2.71-.48h-1.82v5.71Z"/><path class="cls-2" d="m91.71,181.81h1.73v9.96h-1.73v-1.39c-.58.74-1.66,1.68-3.41,1.68-2.52,0-4.85-1.78-4.85-5.28s2.3-5.21,4.85-5.21c1.92,0,2.95,1.06,3.41,1.66v-1.42Zm-6.48,4.97c0,2.14,1.2,3.74,3.26,3.74s3.31-1.75,3.31-3.72c0-2.57-1.78-3.7-3.31-3.7-1.7,0-3.26,1.25-3.26,3.67Z"/><path class="cls-2" d="m100.8,184.11c-.24-.58-.74-1.01-1.39-1.01s-1.2.36-1.2,1.13c0,.72.48.94,1.61,1.42,1.44.6,2.11,1.06,2.5,1.54.43.53.53,1.06.53,1.61,0,2.09-1.51,3.26-3.43,3.26-.41,0-2.64-.05-3.48-2.54l1.49-.62c.19.53.77,1.63,2.02,1.63,1.13,0,1.63-.84,1.63-1.58,0-.94-.67-1.25-1.61-1.66-1.2-.53-1.97-.91-2.42-1.46-.38-.48-.46-.96-.46-1.46,0-1.75,1.22-2.78,2.9-2.78.53,0,1.94.1,2.74,1.8l-1.42.74Z"/><path class="cls-2" d="m106.01,176.81c.67,0,1.22.55,1.22,1.22s-.55,1.22-1.22,1.22-1.22-.55-1.22-1.22.55-1.22,1.22-1.22Zm.86,4.99v9.96h-1.73v-9.96h1.73Z"/><path class="cls-2" d="m114.24,184.11c-.24-.58-.74-1.01-1.39-1.01s-1.2.36-1.2,1.13c0,.72.48.94,1.61,1.42,1.44.6,2.11,1.06,2.5,1.54.43.53.53,1.06.53,1.61,0,2.09-1.51,3.26-3.43,3.26-.41,0-2.64-.05-3.48-2.54l1.49-.62c.19.53.77,1.63,2.02,1.63,1.13,0,1.63-.84,1.63-1.58,0-.94-.67-1.25-1.61-1.66-1.2-.53-1.97-.91-2.42-1.46-.38-.48-.46-.96-.46-1.46,0-1.75,1.22-2.78,2.9-2.78.53,0,1.94.1,2.74,1.8l-1.42.74Z"/><path class="cls-2" d="m120.31,174.27v17.5h-1.73v-17.5h1.73Z"/><path class="cls-2" d="m124.44,176.81c.67,0,1.22.55,1.22,1.22s-.55,1.22-1.22,1.22-1.22-.55-1.22-1.22.55-1.22,1.22-1.22Zm.86,4.99v9.96h-1.73v-9.96h1.73Z"/><path class="cls-2" d="m129.43,176.81c.67,0,1.22.55,1.22,1.22s-.55,1.22-1.22,1.22-1.22-.55-1.22-1.22.55-1.22,1.22-1.22Zm.86,4.99v15.48h-1.73v-15.48h1.73Z"/><path class="cls-2" d="m133.56,181.81h1.73v1.15c.31-.41,1.2-1.39,2.86-1.39,1.18,0,2.26.48,2.86,1.37.5.74.58,1.56.58,2.66v6.17h-1.73v-6.12c0-.6-.05-1.3-.46-1.82-.34-.43-.86-.72-1.63-.72-.6,0-1.25.17-1.75.77-.67.79-.72,1.97-.72,2.69v5.21h-1.73v-9.96Z"/><path class="cls-2" d="m69,219.38c-.22-.43-.58-.91-.94-1.2-.31-.24-.89-.55-1.8-.55-1.58,0-2.69.98-2.69,2.47,0,.62.17.98.6,1.39.48.48,1.08.74,1.68,1.01l1.54.67c.94.41,1.8.84,2.47,1.51.82.82,1.15,1.75,1.15,2.9,0,2.95-2.18,4.92-5.06,4.92-1.06,0-2.38-.22-3.48-1.3-.79-.77-1.27-1.87-1.49-2.83l1.73-.48c.12.84.5,1.56.96,2.04.7.7,1.49.89,2.3.89,2.18,0,3.22-1.56,3.22-3.17,0-.72-.22-1.34-.79-1.87-.46-.43-1.08-.72-1.92-1.1l-1.44-.67c-.62-.29-1.42-.62-2.14-1.32-.7-.67-1.1-1.42-1.1-2.62,0-2.47,1.9-4.13,4.49-4.13.98,0,1.78.19,2.57.72.65.43,1.2,1.08,1.56,1.78l-1.42.94Z"/><path class="cls-2" d="m75.63,223.84v8.38h-1.73v-8.38h-1.06v-1.58h1.06v-3.6h1.73v3.6h1.73v1.58h-1.73Z"/><path class="cls-2" d="m86.62,222.26h1.73v9.96h-1.73v-1.39c-.58.74-1.66,1.68-3.41,1.68-2.52,0-4.85-1.78-4.85-5.28s2.3-5.21,4.85-5.21c1.92,0,2.95,1.06,3.41,1.66v-1.42Zm-6.48,4.97c0,2.14,1.2,3.74,3.26,3.74s3.31-1.75,3.31-3.72c0-2.57-1.78-3.7-3.31-3.7-1.7,0-3.26,1.25-3.26,3.67Z"/><path class="cls-2" d="m99.24,222.26h1.73v9.96h-1.73v-1.39c-.58.74-1.66,1.68-3.41,1.68-2.52,0-4.85-1.78-4.85-5.28s2.3-5.21,4.85-5.21c1.92,0,2.95,1.06,3.41,1.66v-1.42Zm-6.48,4.97c0,2.14,1.2,3.74,3.26,3.74s3.31-1.75,3.31-3.72c0-2.57-1.78-3.7-3.31-3.7-1.7,0-3.26,1.25-3.26,3.67Z"/><path class="cls-2" d="m104.23,222.26h1.73v1.08c.17-.26.91-1.32,2.26-1.32.53,0,1.1.19,1.54.41l-.82,1.56c-.38-.26-.74-.34-1.01-.34-.7,0-1.13.29-1.39.62-.29.38-.58,1.06-.58,2.69v5.26h-1.73v-9.96Z"/><path class="cls-2" d="m113.59,223.84v8.38h-1.73v-8.38h-1.06v-1.58h1.06v-3.6h1.73v3.6h1.73v1.58h-1.73Z"/><path class="cls-2" d="m118.68,214.72v17.5h-1.73v-17.5h1.73Z"/><path class="cls-2" d="m122.81,217.27c.67,0,1.22.55,1.22,1.22s-.55,1.22-1.22,1.22-1.22-.55-1.22-1.22.55-1.22,1.22-1.22Zm.86,4.99v9.96h-1.73v-9.96h1.73Z"/><path class="cls-2" d="m127.8,217.27c.67,0,1.22.55,1.22,1.22s-.55,1.22-1.22,1.22-1.22-.55-1.22-1.22.55-1.22,1.22-1.22Zm.86,4.99v15.48h-1.73v-15.48h1.73Z"/><path class="cls-2" d="m131.93,222.26h1.73v1.15c.31-.41,1.2-1.39,2.86-1.39,1.18,0,2.26.48,2.86,1.37.5.74.58,1.56.58,2.66v6.17h-1.73v-6.12c0-.6-.05-1.3-.46-1.82-.34-.43-.86-.72-1.63-.72-.6,0-1.25.17-1.75.77-.67.79-.72,1.97-.72,2.69v5.21h-1.73v-9.96Z"/><path class="cls-2" d="m782.95,4.66c-.22-.43-.58-.91-.94-1.2-.31-.24-.89-.55-1.8-.55-1.58,0-2.69.98-2.69,2.47,0,.62.17.98.6,1.39.48.48,1.08.74,1.68,1.01l1.54.67c.94.41,1.8.84,2.47,1.51.82.82,1.15,1.75,1.15,2.9,0,2.95-2.18,4.92-5.06,4.92-1.06,0-2.38-.22-3.48-1.3-.79-.77-1.27-1.87-1.49-2.83l1.73-.48c.12.84.5,1.56.96,2.04.7.7,1.49.89,2.3.89,2.18,0,3.22-1.56,3.22-3.17,0-.72-.22-1.34-.79-1.87-.46-.43-1.08-.72-1.92-1.1l-1.44-.67c-.62-.29-1.42-.62-2.14-1.32-.7-.67-1.1-1.42-1.1-2.62,0-2.47,1.9-4.13,4.49-4.13.98,0,1.78.19,2.57.72.65.43,1.2,1.08,1.56,1.78l-1.42.94Z"/><path class="cls-2" d="m789.57,9.12v8.38h-1.73v-8.38h-1.06v-1.58h1.06v-3.6h1.73v3.6h1.73v1.58h-1.73Z"/><path class="cls-2" d="m792.31,12.55c0-3.02,2.23-5.26,5.28-5.26s5.28,2.23,5.28,5.26-2.26,5.23-5.28,5.23-5.28-2.21-5.28-5.23Zm1.78,0c0,2.45,1.73,3.7,3.5,3.7s3.5-1.27,3.5-3.7-1.68-3.72-3.5-3.72-3.5,1.3-3.5,3.72Z"/><path class="cls-2" d="m807.24,0v11.23l3.65-3.7h2.26l-4.27,4.27,5.04,5.69h-2.26l-3.98-4.54-.43.43v4.1h-1.73V0h1.73Z"/><path class="cls-2" d="m817.37,0v17.5h-1.73V0h1.73Z"/><path class="cls-2" d="m829.46,14.95c-.29.55-.72,1.15-1.22,1.61-.91.82-2.04,1.22-3.31,1.22-2.4,0-4.92-1.51-4.92-5.21,0-2.98,1.82-5.28,4.82-5.28,1.94,0,3.17.96,3.77,1.82.62.89.98,2.42.94,3.74h-7.75c.02,2.06,1.44,3.38,3.17,3.38.82,0,1.46-.24,2.04-.72.46-.38.82-.89,1.03-1.37l1.44.79Zm-1.7-3.53c-.29-1.56-1.46-2.59-2.93-2.59s-2.66,1.1-2.93,2.59h5.86Z"/><path class="cls-2" d="m833.95,9.12v8.38h-1.73v-8.38h-1.06v-1.58h1.06v-3.6h1.73v3.6h1.73v1.58h-1.73Z"/><path class="cls-2" d="m839.56,9.12v8.38h-1.73v-8.38h-1.06v-1.58h1.06v-3.6h1.73v3.6h1.73v1.58h-1.73Z"/><path class="cls-2" d="m851.76,14.95c-.29.55-.72,1.15-1.22,1.61-.91.82-2.04,1.22-3.31,1.22-2.4,0-4.92-1.51-4.92-5.21,0-2.98,1.82-5.28,4.82-5.28,1.94,0,3.17.96,3.77,1.82.62.89.98,2.42.94,3.74h-7.75c.02,2.06,1.44,3.38,3.17,3.38.82,0,1.46-.24,2.04-.72.46-.38.82-.89,1.03-1.37l1.44.79Zm-1.7-3.53c-.29-1.56-1.46-2.59-2.93-2.59s-2.66,1.1-2.93,2.59h5.86Z"/><path class="cls-2" d="m854.47,7.54h1.73v1.08c.17-.26.91-1.32,2.26-1.32.53,0,1.1.19,1.54.41l-.82,1.56c-.38-.26-.74-.34-1.01-.34-.7,0-1.13.29-1.39.62-.29.38-.58,1.06-.58,2.69v5.26h-1.73V7.54Z"/><path class="cls-2" d="m865.41,9.84c-.24-.58-.74-1.01-1.39-1.01s-1.2.36-1.2,1.13c0,.72.48.94,1.61,1.42,1.44.6,2.11,1.06,2.5,1.54.43.53.53,1.06.53,1.61,0,2.09-1.51,3.26-3.43,3.26-.41,0-2.64-.05-3.48-2.54l1.49-.62c.19.53.77,1.63,2.02,1.63,1.13,0,1.63-.84,1.63-1.58,0-.94-.67-1.25-1.61-1.66-1.2-.53-1.97-.91-2.42-1.46-.38-.48-.46-.96-.46-1.46,0-1.75,1.22-2.78,2.9-2.78.53,0,1.94.1,2.74,1.8l-1.42.74Z"/><path class="cls-2" d="m884.18,14.95c-.29.55-.72,1.15-1.22,1.61-.91.82-2.04,1.22-3.31,1.22-2.4,0-4.92-1.51-4.92-5.21,0-2.98,1.82-5.28,4.82-5.28,1.94,0,3.17.96,3.77,1.82.62.89.98,2.42.94,3.74h-7.75c.02,2.06,1.44,3.38,3.17,3.38.82,0,1.46-.24,2.04-.72.46-.38.82-.89,1.03-1.37l1.44.79Zm-1.7-3.53c-.29-1.56-1.46-2.59-2.93-2.59s-2.66,1.1-2.93,2.59h5.86Z"/><path class="cls-2" d="m886.89,7.54h1.73v1.15c.31-.41,1.2-1.39,2.86-1.39,1.18,0,2.26.48,2.86,1.37.5.74.58,1.56.58,2.66v6.17h-1.73v-6.12c0-.6-.05-1.3-.46-1.82-.34-.43-.86-.72-1.63-.72-.6,0-1.25.17-1.75.77-.67.79-.72,1.97-.72,2.69v5.21h-1.73V7.54Z"/><path class="cls-2" d="m911.4,7.54h1.73v9.96h-1.73v-1.39c-.58.74-1.66,1.68-3.41,1.68-2.52,0-4.85-1.78-4.85-5.28s2.3-5.21,4.85-5.21c1.92,0,2.95,1.06,3.41,1.66v-1.42Zm-6.48,4.97c0,2.14,1.2,3.74,3.26,3.74s3.31-1.75,3.31-3.72c0-2.57-1.78-3.7-3.31-3.7-1.7,0-3.26,1.25-3.26,3.67Z"/><path class="cls-2" d="m918.11,23.02h-1.73V7.54h1.73v1.39c1.18-1.46,2.69-1.63,3.41-1.63,3.12,0,4.85,2.59,4.85,5.28s-1.75,5.21-4.78,5.21c-1.61,0-2.74-.72-3.48-1.68v6.91Zm6.48-10.44c0-2.45-1.66-3.74-3.26-3.74s-3.31,1.32-3.31,3.72c0,2.04,1.3,3.7,3.34,3.7s3.24-1.68,3.24-3.67Z"/><path class="cls-2" d="m937.84,14.95c-.29.55-.72,1.15-1.22,1.61-.91.82-2.04,1.22-3.31,1.22-2.4,0-4.92-1.51-4.92-5.21,0-2.98,1.82-5.28,4.82-5.28,1.94,0,3.17.96,3.77,1.82.62.89.98,2.42.94,3.74h-7.75c.02,2.06,1.44,3.38,3.17,3.38.82,0,1.46-.24,2.04-.72.46-.38.82-.89,1.03-1.37l1.44.79Zm-1.7-3.53c-.29-1.56-1.46-2.59-2.93-2.59s-2.66,1.1-2.93,2.59h5.86Z"/><path class="cls-2" d="m943.36,12.17l-3.62-4.63h2.11l2.57,3.38,2.62-3.38h2.11l-3.65,4.66,4.13,5.3h-2.11l-3.14-4.06-3.14,4.06h-2.11l4.25-5.33Z"/><path class="cls-2" d="m961.15,9.84c-.24-.58-.74-1.01-1.39-1.01s-1.2.36-1.2,1.13c0,.72.48.94,1.61,1.42,1.44.6,2.11,1.06,2.5,1.54.43.53.53,1.06.53,1.61,0,2.09-1.51,3.26-3.43,3.26-.41,0-2.64-.05-3.48-2.54l1.49-.62c.19.53.77,1.63,2.02,1.63,1.13,0,1.63-.84,1.63-1.58,0-.94-.67-1.25-1.61-1.66-1.2-.53-1.97-.91-2.42-1.46-.38-.48-.46-.96-.46-1.46,0-1.75,1.22-2.78,2.9-2.78.53,0,1.94.1,2.74,1.8l-1.42.74Z"/><path class="cls-2" d="m967.27,9.12v8.38h-1.73v-8.38h-1.06v-1.58h1.06v-3.6h1.73v3.6h1.73v1.58h-1.73Z"/><path class="cls-2" d="m979.46,14.95c-.29.55-.72,1.15-1.22,1.61-.91.82-2.04,1.22-3.31,1.22-2.4,0-4.92-1.51-4.92-5.21,0-2.98,1.82-5.28,4.82-5.28,1.94,0,3.17.96,3.77,1.82.62.89.98,2.42.94,3.74h-7.75c.02,2.06,1.44,3.38,3.17,3.38.82,0,1.46-.24,2.04-.72.46-.38.82-.89,1.03-1.37l1.44.79Zm-1.7-3.53c-.29-1.56-1.46-2.59-2.93-2.59s-2.66,1.1-2.93,2.59h5.86Z"/><path class="cls-2" d="m983.9,0v11.23l3.65-3.7h2.26l-4.27,4.27,5.04,5.69h-2.26l-3.98-4.54-.43.43v4.1h-1.73V0h1.73Z"/><path class="cls-2" d="m1000.89,14.95c-.29.55-.72,1.15-1.22,1.61-.91.82-2.04,1.22-3.31,1.22-2.4,0-4.92-1.51-4.92-5.21,0-2.98,1.82-5.28,4.82-5.28,1.94,0,3.17.96,3.77,1.82.62.89.98,2.42.94,3.74h-7.75c.02,2.06,1.44,3.38,3.17,3.38.82,0,1.46-.24,2.04-.72.46-.38.82-.89,1.03-1.37l1.44.79Zm-1.7-3.53c-.29-1.56-1.46-2.59-2.93-2.59s-2.66,1.1-2.93,2.59h5.86Z"/><path class="cls-2" d="m1003.6,7.54h1.73v1.15c.31-.41,1.2-1.39,2.86-1.39,1.18,0,2.26.48,2.86,1.37.5.74.58,1.56.58,2.66v6.17h-1.73v-6.12c0-.6-.05-1.3-.46-1.82-.34-.43-.86-.72-1.63-.72-.6,0-1.25.17-1.75.77-.67.79-.72,1.97-.72,2.69v5.21h-1.73V7.54Z"/><path class="cls-2" d="m1022.2,13.35c0,.7,0,1.51.48,2.14.26.34.79.77,1.75.77s1.49-.43,1.75-.77c.48-.62.48-1.44.48-2.14v-5.81h1.73v6c0,1.22-.12,2.14-.91,3-.89.94-2.06,1.25-3.05,1.25s-2.16-.31-3.05-1.25c-.79-.86-.91-1.78-.91-3v-6h1.73v5.81Z"/><path class="cls-2" d="m1032.52,2.54c.67,0,1.22.55,1.22,1.22s-.55,1.22-1.22,1.22-1.22-.55-1.22-1.22.55-1.22,1.22-1.22Zm.86,4.99v9.96h-1.73V7.54h1.73Z"/><path class="cls-2" d="m1038.42,9.12v8.38h-1.73v-8.38h-1.06v-1.58h1.06v-3.6h1.73v3.6h1.73v1.58h-1.73Z"/><path class="cls-2" d="m547.87,68.61c-.5-.5-1.27-1.1-2.09-1.49-.84-.38-1.82-.62-2.76-.62-3.7,0-6.43,2.98-6.43,6.67,0,4.34,3.53,6.53,6.46,6.53,1.08,0,2.14-.31,2.98-.74.91-.46,1.56-1.06,1.85-1.34v2.21c-1.78,1.27-3.62,1.56-4.82,1.56-4.75,0-8.28-3.6-8.28-8.23s3.58-8.33,8.38-8.33c.96,0,2.81.12,4.73,1.58v2.21Z"/><path class="cls-2" d="m550.7,71.13h1.73v1.08c.17-.26.91-1.32,2.26-1.32.53,0,1.1.19,1.54.41l-.82,1.56c-.38-.26-.74-.34-1.01-.34-.7,0-1.13.29-1.39.62-.29.38-.58,1.06-.58,2.69v5.26h-1.73v-9.96Z"/><path class="cls-2" d="m556.61,76.14c0-3.02,2.23-5.26,5.28-5.26s5.28,2.23,5.28,5.26-2.26,5.23-5.28,5.23-5.28-2.21-5.28-5.23Zm1.78,0c0,2.45,1.73,3.7,3.5,3.7s3.5-1.27,3.5-3.7-1.68-3.72-3.5-3.72-3.5,1.3-3.5,3.72Z"/><path class="cls-2" d="m573.91,73.43c-.24-.58-.74-1.01-1.39-1.01s-1.2.36-1.2,1.13c0,.72.48.94,1.61,1.42,1.44.6,2.11,1.06,2.5,1.54.43.53.53,1.06.53,1.61,0,2.09-1.51,3.26-3.43,3.26-.41,0-2.64-.05-3.48-2.54l1.49-.62c.19.53.77,1.63,2.02,1.63,1.13,0,1.63-.84,1.63-1.58,0-.94-.67-1.25-1.61-1.66-1.2-.53-1.97-.91-2.42-1.46-.38-.48-.46-.96-.46-1.46,0-1.75,1.22-2.78,2.9-2.78.53,0,1.94.1,2.74,1.8l-1.42.74Z"/><path class="cls-2" d="m582.36,73.43c-.24-.58-.74-1.01-1.39-1.01s-1.2.36-1.2,1.13c0,.72.48.94,1.61,1.42,1.44.6,2.11,1.06,2.5,1.54.43.53.53,1.06.53,1.61,0,2.09-1.51,3.26-3.43,3.26-.41,0-2.64-.05-3.48-2.54l1.49-.62c.19.53.77,1.63,2.02,1.63,1.13,0,1.63-.84,1.63-1.58,0-.94-.67-1.25-1.61-1.66-1.2-.53-1.97-.91-2.42-1.46-.38-.48-.46-.96-.46-1.46,0-1.75,1.22-2.78,2.9-2.78.53,0,1.94.1,2.74,1.8l-1.42.74Z"/><path class="cls-2" d="m588.43,81.09h-1.73v-17.5h1.73v8.93c1.18-1.46,2.69-1.63,3.41-1.63,3.12,0,4.85,2.59,4.85,5.28s-1.75,5.21-4.78,5.21c-1.61,0-2.74-.72-3.48-1.68v1.39Zm6.48-4.92c0-2.45-1.66-3.74-3.26-3.74s-3.31,1.32-3.31,3.72c0,2.04,1.3,3.7,3.34,3.7s3.24-1.68,3.24-3.67Z"/><path class="cls-2" d="m606.96,71.13h1.73v9.96h-1.73v-1.39c-.58.74-1.66,1.68-3.41,1.68-2.52,0-4.85-1.78-4.85-5.28s2.3-5.21,4.85-5.21c1.92,0,2.95,1.06,3.41,1.66v-1.42Zm-6.48,4.97c0,2.14,1.2,3.74,3.26,3.74s3.31-1.75,3.31-3.72c0-2.57-1.78-3.7-3.31-3.7-1.7,0-3.26,1.25-3.26,3.67Z"/><path class="cls-2" d="m611.95,71.13h1.73v1.08c.17-.26.91-1.32,2.26-1.32.53,0,1.1.19,1.54.41l-.82,1.56c-.38-.26-.74-.34-1.01-.34-.7,0-1.13.29-1.39.62-.29.38-.58,1.06-.58,2.69v5.26h-1.73v-9.96Z"/><path class="cls-2" d="m625.51,66.13c.67,0,1.22.55,1.22,1.22s-.55,1.22-1.22,1.22-1.22-.55-1.22-1.22.55-1.22,1.22-1.22Zm.86,4.99v9.96h-1.73v-9.96h1.73Z"/><path class="cls-2" d="m633.74,73.43c-.24-.58-.74-1.01-1.39-1.01s-1.2.36-1.2,1.13c0,.72.48.94,1.61,1.42,1.44.6,2.11,1.06,2.5,1.54.43.53.53,1.06.53,1.61,0,2.09-1.51,3.26-3.43,3.26-.41,0-2.64-.05-3.48-2.54l1.49-.62c.19.53.77,1.63,2.02,1.63,1.13,0,1.63-.84,1.63-1.58,0-.94-.67-1.25-1.61-1.66-1.2-.53-1.97-.91-2.42-1.46-.38-.48-.46-.96-.46-1.46,0-1.75,1.22-2.78,2.9-2.78.53,0,1.94.1,2.74,1.8l-1.42.74Z"/><path class="cls-2" d="m645.4,63.59v17.5h-1.73v-17.5h1.73Z"/><path class="cls-2" d="m656.3,71.13h1.73v9.96h-1.73v-1.39c-.58.74-1.66,1.68-3.41,1.68-2.52,0-4.85-1.78-4.85-5.28s2.3-5.21,4.85-5.21c1.92,0,2.95,1.06,3.41,1.66v-1.42Zm-6.48,4.97c0,2.14,1.2,3.74,3.26,3.74s3.31-1.75,3.31-3.72c0-2.57-1.78-3.7-3.31-3.7-1.7,0-3.26,1.25-3.26,3.67Z"/><path class="cls-2" d="m661.29,71.13h1.73v1.15c.31-.41,1.2-1.39,2.86-1.39,1.18,0,2.26.48,2.86,1.37.5.74.58,1.56.58,2.66v6.17h-1.73v-6.12c0-.6-.05-1.3-.46-1.82-.34-.43-.86-.72-1.63-.72-.6,0-1.25.17-1.75.77-.67.79-.72,1.97-.72,2.69v5.21h-1.73v-9.96Z"/><path class="cls-2" d="m680.2,71.13h1.73v9.72c0,1.08,0,2.62-.96,3.91-.74,1.01-2.11,1.85-3.98,1.85-1.7,0-2.88-.67-3.55-1.34s-1.3-1.75-1.3-3.22h1.7c0,.84.34,1.58.77,2.06.72.79,1.63.96,2.4.96,1.22,0,2.06-.43,2.64-1.39.5-.82.55-1.7.55-2.54v-1.44c-.58.74-1.66,1.68-3.41,1.68-1.46,0-2.64-.58-3.41-1.34-.67-.67-1.44-1.92-1.44-3.94s.72-3.14,1.44-3.86c.84-.82,2.06-1.34,3.41-1.34,1.46,0,2.62.62,3.41,1.66v-1.42Zm-5.47,2.23c-.84.86-1.01,1.92-1.01,2.74,0,.86.17,2.04,1.13,2.93.55.5,1.22.82,2.14.82s1.63-.29,2.18-.84c.67-.65,1.13-1.7,1.13-2.88s-.43-2.21-1.06-2.81c-.55-.55-1.37-.89-2.26-.89-1.06,0-1.78.46-2.26.94Z"/><path class="cls-2" d="m694.03,78.54c-.29.55-.72,1.15-1.22,1.61-.91.82-2.04,1.22-3.31,1.22-2.4,0-4.92-1.51-4.92-5.21,0-2.98,1.82-5.28,4.82-5.28,1.94,0,3.17.96,3.77,1.82.62.89.98,2.42.94,3.74h-7.75c.02,2.06,1.44,3.38,3.17,3.38.82,0,1.46-.24,2.04-.72.46-.38.82-.89,1.03-1.37l1.44.79Zm-1.7-3.53c-.29-1.56-1.46-2.59-2.93-2.59s-2.66,1.1-2.93,2.59h5.86Z"/><path class="cls-2" d="m696.74,71.13h1.73v1.08c.17-.26.91-1.32,2.26-1.32.53,0,1.1.19,1.54.41l-.82,1.56c-.38-.26-.74-.34-1.01-.34-.7,0-1.13.29-1.39.62-.29.38-.58,1.06-.58,2.69v5.26h-1.73v-9.96Z"/><path class="cls-2" d="m709.43,71.13h1.73v1.08c.17-.26.91-1.32,2.26-1.32.53,0,1.1.19,1.54.41l-.82,1.56c-.38-.26-.74-.34-1.01-.34-.7,0-1.13.29-1.39.62-.29.38-.58,1.06-.58,2.69v5.26h-1.73v-9.96Z"/><path class="cls-2" d="m724.79,78.54c-.29.55-.72,1.15-1.22,1.61-.91.82-2.04,1.22-3.31,1.22-2.4,0-4.92-1.51-4.92-5.21,0-2.98,1.82-5.28,4.82-5.28,1.94,0,3.17.96,3.77,1.82.62.89.98,2.42.94,3.74h-7.75c.02,2.06,1.44,3.38,3.17,3.38.82,0,1.46-.24,2.04-.72.46-.38.82-.89,1.03-1.37l1.44.79Zm-1.7-3.53c-.29-1.56-1.46-2.59-2.93-2.59s-2.66,1.1-2.93,2.59h5.86Z"/><path class="cls-2" d="m735.31,73.91c-.91-1.15-2.23-1.49-3.12-1.49-1.85,0-3.53,1.3-3.53,3.72s1.73,3.7,3.5,3.7c1.03,0,2.3-.46,3.22-1.56v2.06c-1.08.79-2.23,1.03-3.17,1.03-3.1,0-5.33-2.21-5.33-5.21s2.26-5.28,5.33-5.28c1.58,0,2.62.62,3.1.96v2.06Z"/><path class="cls-2" d="m738.02,63.59h1.73v8.69c.31-.41,1.2-1.39,2.86-1.39,1.18,0,2.26.48,2.86,1.37.5.74.58,1.56.58,2.66v6.17h-1.73v-6.12c0-.6-.05-1.3-.46-1.82-.34-.43-.86-.72-1.63-.72-.6,0-1.25.17-1.75.77-.67.79-.72,1.97-.72,2.69v5.21h-1.73v-17.5Z"/><path class="cls-2" d="m751.07,72.71v8.38h-1.73v-8.38h-1.06v-1.58h1.06v-3.6h1.73v3.6h1.73v1.58h-1.73Z"/><path class="cls-2" d="m758.54,73.43c-.24-.58-.74-1.01-1.39-1.01s-1.2.36-1.2,1.13c0,.72.48.94,1.61,1.42,1.44.6,2.11,1.06,2.5,1.54.43.53.53,1.06.53,1.61,0,2.09-1.51,3.26-3.43,3.26-.41,0-2.64-.05-3.48-2.54l1.49-.62c.19.53.77,1.63,2.02,1.63,1.13,0,1.63-.84,1.63-1.58,0-.94-.67-1.25-1.61-1.66-1.2-.53-1.97-.91-2.42-1.46-.38-.48-.46-.96-.46-1.46,0-1.75,1.22-2.78,2.9-2.78.53,0,1.94.1,2.74,1.8l-1.42.74Z"/></g></svg>